<mxfile host="app.diagrams.net" agent="Mozilla/5.0 (Windows NT 10.0; Win64; x64) AppleWebKit/537.36 (KHTML, like Gecko) Chrome/134.0.0.0 Safari/537.36 OPR/119.0.0.0" version="26.0.5">
  <diagram id="C5RBs43oDa-KdzZeNtuy" name="Page-1">
    <mxGraphModel dx="2312" dy="1098" grid="1" gridSize="10" guides="1" tooltips="1" connect="1" arrows="1" fold="1" page="1" pageScale="1" pageWidth="827" pageHeight="1169" math="0" shadow="0">
      <root>
        <mxCell id="WIyWlLk6GJQsqaUBKTNV-0" />
        <mxCell id="WIyWlLk6GJQsqaUBKTNV-1" parent="WIyWlLk6GJQsqaUBKTNV-0" />
        <mxCell id="HHEU8aaF2WZcjPR2dKdU-5" style="edgeStyle=orthogonalEdgeStyle;rounded=0;orthogonalLoop=1;jettySize=auto;html=1;" edge="1" parent="WIyWlLk6GJQsqaUBKTNV-1" source="HHEU8aaF2WZcjPR2dKdU-0" target="HHEU8aaF2WZcjPR2dKdU-3">
          <mxGeometry relative="1" as="geometry" />
        </mxCell>
        <mxCell id="HHEU8aaF2WZcjPR2dKdU-0" value="START" style="ellipse;whiteSpace=wrap;html=1;" vertex="1" parent="WIyWlLk6GJQsqaUBKTNV-1">
          <mxGeometry x="359" y="90" width="120" height="80" as="geometry" />
        </mxCell>
        <mxCell id="HHEU8aaF2WZcjPR2dKdU-1" value="Screen flow opened" style="text;html=1;align=center;verticalAlign=middle;resizable=0;points=[];autosize=1;strokeColor=none;fillColor=none;" vertex="1" parent="WIyWlLk6GJQsqaUBKTNV-1">
          <mxGeometry x="354.5" y="60" width="130" height="30" as="geometry" />
        </mxCell>
        <mxCell id="HHEU8aaF2WZcjPR2dKdU-2" value="SALESFORCE - FINANCE - BUDGET MANAGER - SCR" style="text;html=1;align=center;verticalAlign=middle;resizable=0;points=[];autosize=1;strokeColor=none;fillColor=none;fontStyle=1" vertex="1" parent="WIyWlLk6GJQsqaUBKTNV-1">
          <mxGeometry x="249" y="10" width="330" height="30" as="geometry" />
        </mxCell>
        <mxCell id="HHEU8aaF2WZcjPR2dKdU-11" style="edgeStyle=orthogonalEdgeStyle;rounded=0;orthogonalLoop=1;jettySize=auto;html=1;" edge="1" parent="WIyWlLk6GJQsqaUBKTNV-1" source="HHEU8aaF2WZcjPR2dKdU-3" target="HHEU8aaF2WZcjPR2dKdU-6">
          <mxGeometry relative="1" as="geometry" />
        </mxCell>
        <mxCell id="HHEU8aaF2WZcjPR2dKdU-3" value="Get Program_Expense__c&amp;nbsp;&lt;br&gt;Records" style="rounded=1;whiteSpace=wrap;html=1;" vertex="1" parent="WIyWlLk6GJQsqaUBKTNV-1">
          <mxGeometry x="346" y="240" width="146" height="70" as="geometry" />
        </mxCell>
        <mxCell id="HHEU8aaF2WZcjPR2dKdU-4" value="Condition:&lt;br&gt;Record Type = Borderplex Budget Expense" style="text;html=1;align=center;verticalAlign=middle;resizable=0;points=[];autosize=1;strokeColor=none;fillColor=none;" vertex="1" parent="WIyWlLk6GJQsqaUBKTNV-1">
          <mxGeometry x="540" y="240" width="250" height="40" as="geometry" />
        </mxCell>
        <mxCell id="HHEU8aaF2WZcjPR2dKdU-10" style="edgeStyle=orthogonalEdgeStyle;rounded=0;orthogonalLoop=1;jettySize=auto;html=1;" edge="1" parent="WIyWlLk6GJQsqaUBKTNV-1" source="HHEU8aaF2WZcjPR2dKdU-6" target="HHEU8aaF2WZcjPR2dKdU-9">
          <mxGeometry relative="1" as="geometry" />
        </mxCell>
        <mxCell id="HHEU8aaF2WZcjPR2dKdU-6" value="Display Table of&amp;nbsp;&lt;br&gt;BPLX Program Budgets" style="rounded=1;whiteSpace=wrap;html=1;" vertex="1" parent="WIyWlLk6GJQsqaUBKTNV-1">
          <mxGeometry x="346" y="390" width="146" height="70" as="geometry" />
        </mxCell>
        <mxCell id="HHEU8aaF2WZcjPR2dKdU-9" value="USER ACTION CHECK" style="rhombus;whiteSpace=wrap;html=1;" vertex="1" parent="WIyWlLk6GJQsqaUBKTNV-1">
          <mxGeometry x="359" y="550" width="121" height="105" as="geometry" />
        </mxCell>
        <mxCell id="HHEU8aaF2WZcjPR2dKdU-12" value="User Actions&lt;br&gt;Budget Modifications&lt;br&gt;??" style="text;html=1;align=center;verticalAlign=middle;resizable=0;points=[];autosize=1;strokeColor=none;fillColor=none;" vertex="1" parent="WIyWlLk6GJQsqaUBKTNV-1">
          <mxGeometry x="600" y="572.5" width="130" height="60" as="geometry" />
        </mxCell>
      </root>
    </mxGraphModel>
  </diagram>
</mxfile>
